<?xml version="1.0" encoding="UTF-8"?>
<svg width="780" height="506" viewBox="0 0 780 506" xmlns="http://www.w3.org/2000/svg">
  <defs>
    <style>
      text { font-family: 'SF Mono','Fira Code','Consolas',monospace; }
      .ttl { font-size:14px; font-weight:bold; fill:#e6edf3; }
      .sub { font-size:10px; fill:#8b949e; }
      .pin { font-size:11px; fill:#c9d1d9; }
      .sig { font-size: 9px; }
      .hdr { font-size:11px; font-weight:bold; letter-spacing:0.5px; }
      .cmp { font-size:12px; font-weight:bold; }
    </style>
  </defs>

  <!-- ── Background ─────────────────────────────────────────── -->
  <rect width="780" height="506" fill="#0d1117" rx="12"/>

  <!-- ── Title bar ──────────────────────────────────────────── -->
  <rect width="780" height="52" fill="#161b22" rx="12"/>
  <rect y="40" width="780" height="12" fill="#161b22"/>
  <text class="ttl" x="390" y="22" text-anchor="middle">Shoulder Guardian — RP2040-Zero Wiring</text>
  <text class="sub"  x="390" y="42" text-anchor="middle">All GPIO are 3.3 V — no voltage divider needed  ·  Board Manager: Earle Philhower RP2040  ·  USB Stack: Pico SDK</text>

  <!-- ── Column headers ─────────────────────────────────────── -->
  <rect x="10" y="58" width="220" height="24" fill="#1c2333" rx="4"/>
  <text class="hdr" x="120" y="75" text-anchor="middle" fill="#58a6ff">RP2040-ZERO  PINS</text>
  <rect x="540" y="58" width="230" height="24" fill="#1c2333" rx="4"/>
  <text class="hdr" x="655" y="75" text-anchor="middle" fill="#6e7681">COMPONENT  PINS</text>

  <!-- ══════════════════════════════════════════════════════════
       SECTION 1 — HLK-LD2450
       ══════════════════════════════════════════════════════════ -->
  <rect x="10"  y="86" width="760" height="140" fill="#161b22" rx="6" stroke="#21262d" stroke-width="1"/>
  <rect x="540" y="86" width="230" height="140" fill="#111827" rx="0"/>
  <rect x="544" y="86" width="226" height="140" fill="#111827" rx="0 5 5 0"/>

  <text class="cmp" x="657" y="107" text-anchor="middle" fill="#e3b341">HLK-LD2450</text>
  <line x1="540" y1="112" x2="770" y2="112" stroke="#21262d" stroke-width="1"/>

  <!-- Row 1 — 5V → VCC -->
  <text class="pin" x="226" y="130" text-anchor="end">5V  (USB VBUS)</text>
  <circle cx="234" cy="126" r="3.5" fill="#f78166"/>
  <line x1="234" y1="126" x2="536" y2="126" stroke="#f78166" stroke-width="2"/>
  <text class="sig" x="385" y="122" text-anchor="middle" fill="#f78166" opacity=".8">VCC 5 V</text>
  <circle cx="536" cy="126" r="3.5" fill="#f78166"/>
  <text class="pin" x="548" y="130">VCC</text>

  <!-- Row 2 — GND → GND -->
  <text class="pin" x="226" y="158" text-anchor="end">GND</text>
  <circle cx="234" cy="154" r="3.5" fill="#8b949e"/>
  <line x1="234" y1="154" x2="536" y2="154" stroke="#8b949e" stroke-width="2"/>
  <text class="sig" x="385" y="150" text-anchor="middle" fill="#8b949e" opacity=".8">GND</text>
  <circle cx="536" cy="154" r="3.5" fill="#8b949e"/>
  <text class="pin" x="548" y="158">GND</text>

  <!-- Row 3 — GP1 (RX) → TX -->
  <text class="pin" x="226" y="186" text-anchor="end">GP1  (Serial1 RX)</text>
  <circle cx="234" cy="182" r="3.5" fill="#e3b341"/>
  <line x1="234" y1="182" x2="536" y2="182" stroke="#e3b341" stroke-width="2"/>
  <text class="sig" x="385" y="178" text-anchor="middle" fill="#e3b341" opacity=".8">UART RX</text>
  <circle cx="536" cy="182" r="3.5" fill="#e3b341"/>
  <text class="pin" x="548" y="186">TX</text>

  <!-- Row 4 — GP0 (TX) → RX -->
  <text class="pin" x="226" y="214" text-anchor="end">GP0  (Serial1 TX)</text>
  <circle cx="234" cy="210" r="3.5" fill="#d2a679"/>
  <line x1="234" y1="210" x2="536" y2="210" stroke="#d2a679" stroke-width="2"/>
  <text class="sig" x="385" y="206" text-anchor="middle" fill="#d2a679" opacity=".8">UART TX</text>
  <circle cx="536" cy="210" r="3.5" fill="#d2a679"/>
  <text class="pin" x="548" y="214">RX</text>

  <!-- ══════════════════════════════════════════════════════════
       SECTION 2 — GC9A01 Round Display  (always enabled)
       ══════════════════════════════════════════════════════════ -->
  <rect x="10"  y="234" width="760" height="248" fill="#161b22" rx="6" stroke="#21262d" stroke-width="1"/>
  <rect x="540" y="234" width="230" height="248" fill="#111827" rx="0"/>
  <rect x="544" y="234" width="226" height="248" fill="#111827" rx="0 5 5 0"/>

  <text class="cmp" x="657" y="254" text-anchor="middle" fill="#39d353">GC9A01  Display</text>
  <text class="sub"  x="657" y="268" text-anchor="middle">(always enabled — canvas framebuffer)</text>
  <line x1="540" y1="273" x2="770" y2="273" stroke="#21262d" stroke-width="1"/>

  <!-- Row 5 — 3.3V → VCC -->
  <text class="pin" x="226" y="290" text-anchor="end">3.3V</text>
  <circle cx="234" cy="286" r="3.5" fill="#f78166"/>
  <line x1="234" y1="286" x2="536" y2="286" stroke="#f78166" stroke-width="2"/>
  <text class="sig" x="385" y="282" text-anchor="middle" fill="#f78166" opacity=".8">VCC 3.3 V</text>
  <circle cx="536" cy="286" r="3.5" fill="#f78166"/>
  <text class="pin" x="548" y="290">VCC</text>

  <!-- Row 6 — GND → GND -->
  <text class="pin" x="226" y="318" text-anchor="end">GND</text>
  <circle cx="234" cy="314" r="3.5" fill="#8b949e"/>
  <line x1="234" y1="314" x2="536" y2="314" stroke="#8b949e" stroke-width="2"/>
  <text class="sig" x="385" y="310" text-anchor="middle" fill="#8b949e" opacity=".8">GND</text>
  <circle cx="536" cy="314" r="3.5" fill="#8b949e"/>
  <text class="pin" x="548" y="318">GND</text>

  <!-- Row 7 — GP2 (SCK) → SCL -->
  <text class="pin" x="226" y="346" text-anchor="end">GP2  (SPI0 SCK)</text>
  <circle cx="234" cy="342" r="3.5" fill="#bc8cff"/>
  <line x1="234" y1="342" x2="536" y2="342" stroke="#bc8cff" stroke-width="2"/>
  <text class="sig" x="385" y="338" text-anchor="middle" fill="#bc8cff" opacity=".8">SPI SCK</text>
  <circle cx="536" cy="342" r="3.5" fill="#bc8cff"/>
  <text class="pin" x="548" y="346">SCL  (clock)</text>

  <!-- Row 8 — GP3 (MOSI) → SDA -->
  <text class="pin" x="226" y="374" text-anchor="end">GP3  (SPI0 MOSI)</text>
  <circle cx="234" cy="370" r="3.5" fill="#39d353"/>
  <line x1="234" y1="370" x2="536" y2="370" stroke="#39d353" stroke-width="2"/>
  <text class="sig" x="385" y="366" text-anchor="middle" fill="#39d353" opacity=".8">SPI MOSI</text>
  <circle cx="536" cy="370" r="3.5" fill="#39d353"/>
  <text class="pin" x="548" y="374">SDA  (data)</text>

  <!-- Row 9 — GP5 → CS -->
  <text class="pin" x="226" y="402" text-anchor="end">GP5</text>
  <circle cx="234" cy="398" r="3.5" fill="#58a6ff"/>
  <line x1="234" y1="398" x2="536" y2="398" stroke="#58a6ff" stroke-width="2"/>
  <text class="sig" x="385" y="394" text-anchor="middle" fill="#58a6ff" opacity=".8">SPI CS</text>
  <circle cx="536" cy="398" r="3.5" fill="#58a6ff"/>
  <text class="pin" x="548" y="402">CS  (chip sel)</text>

  <!-- Row 10 — GP4 → DC -->
  <text class="pin" x="226" y="430" text-anchor="end">GP4</text>
  <circle cx="234" cy="426" r="3.5" fill="#ff7b72"/>
  <line x1="234" y1="426" x2="536" y2="426" stroke="#ff7b72" stroke-width="2"/>
  <text class="sig" x="385" y="422" text-anchor="middle" fill="#ff7b72" opacity=".8">DC</text>
  <circle cx="536" cy="426" r="3.5" fill="#ff7b72"/>
  <text class="pin" x="548" y="430">DC  (data/cmd)</text>

  <!-- Row 11 — GP6 → RST -->
  <text class="pin" x="226" y="458" text-anchor="end">GP6</text>
  <circle cx="234" cy="454" r="3.5" fill="#ffa657"/>
  <line x1="234" y1="454" x2="536" y2="454" stroke="#ffa657" stroke-width="2"/>
  <text class="sig" x="385" y="450" text-anchor="middle" fill="#ffa657" opacity=".8">RST</text>
  <circle cx="536" cy="454" r="3.5" fill="#ffa657"/>
  <text class="pin" x="548" y="458">RST  (reset)</text>

  <!-- Row 12 — GP7 → BLK -->
  <text class="pin" x="226" y="474" text-anchor="end">GP7</text>
  <circle cx="234" cy="470" r="3.5" fill="#b5c0cc"/>
  <line x1="234" y1="470" x2="536" y2="470" stroke="#b5c0cc" stroke-width="2"/>
  <text class="sig" x="385" y="466" text-anchor="middle" fill="#b5c0cc" opacity=".8">BLK</text>
  <circle cx="536" cy="470" r="3.5" fill="#b5c0cc"/>
  <text class="pin" x="548" y="474">BLK  (backlight)</text>

  <!-- ── Tip ─────────────────────────────────────────────────── -->
  <text class="sub" x="16" y="498" fill="#6e7681">RP2040-Zero has a WS2812 RGB LED on GP16 (not used here).  Wire an external LED + 330 Ω to any free GPIO if status indication is needed.</text>
</svg>
